<?xml version="1.0" standalone="no"?>
<!DOCTYPE svg PUBLIC "-//W3C//DTD SVG 20010904//EN"
 "http://www.w3.org/TR/2001/REC-SVG-20010904/DTD/svg10.dtd">
<svg version="1.0" xmlns="http://www.w3.org/2000/svg"
 width="700.000000pt" height="700.000000pt" viewBox="0 0 700.000000 700.000000"
 preserveAspectRatio="xMidYMid meet">
<metadata>
Created by potrace 1.14, written by Peter Selinger 2001-2017
</metadata>
<g transform="translate(0.000000,700.000000) scale(0.100000,-0.100000)"
fill="#000000" stroke="none">
<path d="M3289 6985 c-2 -2 -40 -6 -84 -9 -44 -4 -91 -8 -105 -11 -14 -2 -50
-7 -80 -10 -30 -4 -100 -15 -155 -26 -55 -11 -111 -22 -125 -25 -57 -11 -223
-59 -335 -96 -713 -238 -1350 -720 -1778 -1343 -187 -274 -329 -556 -430 -856
-40 -116 -96 -321 -110 -399 -3 -14 -12 -63 -21 -110 -8 -47 -18 -107 -21
-135 -4 -27 -8 -57 -10 -65 -17 -67 -25 -532 -12 -650 3 -30 9 -84 12 -120 4
-36 9 -78 12 -95 2 -16 6 -39 8 -50 52 -381 222 -853 444 -1232 56 -96 70
-127 65 -150 -18 -98 3 -258 47 -345 19 -39 69 -107 103 -141 8 -8 13 -40 14
-85 0 -40 6 -98 13 -130 7 -31 13 -59 14 -62 9 -46 88 -173 139 -225 132 -135
339 -226 598 -266 91 -14 350 -19 442 -9 66 7 72 6 150 -30 45 -20 110 -49
146 -63 36 -14 79 -31 95 -37 28 -12 24 -14 -94 -41 -169 -40 -172 -44 -36
-54 50 -3 110 -8 135 -10 25 -3 90 -7 145 -11 104 -6 141 -9 265 -19 77 -6 95
-8 215 -26 105 -16 121 -18 240 -26 397 -26 783 18 1163 133 62 19 141 36 175
39 107 7 220 15 282 20 33 3 96 7 140 10 44 3 114 8 155 11 85 6 135 10 270
20 137 10 154 11 275 19 133 9 146 11 157 27 8 13 12 52 10 98 -2 32 -32 111
-40 106 -4 -2 -52 -7 -107 -11 -55 -3 -122 -8 -150 -10 -116 -9 -195 -15 -280
-21 -49 -3 -109 -7 -133 -9 -24 -1 -42 -1 -40 1 2 1 55 34 118 72 121 73 108
69 285 88 166 17 200 25 235 53 49 39 63 74 70 169 5 77 7 84 33 101 37 24
112 96 142 135 13 17 41 64 62 103 22 40 57 92 79 115 22 24 55 63 74 88 19
25 37 47 41 50 29 24 272 378 296 431 6 15 26 44 45 65 180 206 263 377 274
559 3 50 14 119 24 155 22 75 67 254 73 290 3 14 8 43 12 65 12 62 13 70 20
117 41 274 41 664 1 910 -3 21 -9 55 -12 75 -59 387 -232 840 -468 1221 -71
114 -206 300 -299 412 -80 96 -314 332 -396 400 -29 25 -66 56 -81 70 -16 14
-40 34 -56 45 -15 11 -32 25 -38 30 -54 48 -316 217 -461 297 -327 181 -758
327 -1105 374 -25 3 -48 8 -51 10 -3 2 -42 6 -85 9 -43 4 -86 9 -94 12 -16 6
-516 14 -521 8z"/>
<path d="M6881 2450 c-13 -11 -19 -20 -14 -20 6 0 18 9 28 20 23 25 17 25 -14
0z"/>
<path d="M6620 1870 c-9 -6 -10 -10 -3 -10 6 0 15 5 18 10 8 12 4 12 -15 0z"/>
<path d="M6580 1860 c-9 -6 -10 -10 -3 -10 6 0 15 5 18 10 8 12 4 12 -15 0z"/>
</g>
</svg>
