<?xml version="1.0" standalone="no"?>
<!DOCTYPE svg PUBLIC "-//W3C//DTD SVG 20010904//EN"
 "http://www.w3.org/TR/2001/REC-SVG-20010904/DTD/svg10.dtd">
<svg version="1.0" xmlns="http://www.w3.org/2000/svg"
 width="640.000000pt" height="640.000000pt" viewBox="0 0 640.000000 640.000000"
 preserveAspectRatio="xMidYMid meet">
<metadata>
Created by potrace 1.14, written by Peter Selinger 2001-2017
</metadata>
<g transform="translate(0.000000,640.000000) scale(0.100000,-0.100000)"
fill="#000000" stroke="none">
<path d="M111 5758 c-56 -9 -77 -23 -95 -59 -14 -29 -16 -243 -16 -2157 0
-2360 -6 -2173 67 -2207 29 -14 69 -17 249 -17 202 1 216 2 244 22 35 25 46
43 53 89 7 45 -13 93 -51 120 -28 19 -43 21 -181 21 l-151 0 0 1970 0 1970
1803 0 1802 0 -1 -1572 c0 -1660 -2 -1610 44 -1656 45 -45 132 -32 169 24 17
27 18 82 20 1174 0 630 2 1154 2 1166 1 21 2 21 451 21 248 0 453 -3 455 -7 3
-4 5 -360 5 -790 0 -699 2 -787 17 -817 31 -66 19 -64 601 -66 l527 -2 0 -708
0 -707 -145 0 c-95 0 -153 -5 -169 -13 -89 -45 -87 -181 3 -225 19 -10 83 -13
236 -14 188 0 214 2 243 19 66 39 61 -94 61 1783 0 1592 -1 1707 -17 1737 -9
18 -26 37 -38 43 -19 10 -88 23 -116 22 -37 -2 -141 -3 -149 -1 -5 1 -13 0
-19 -1 -5 -1 -59 -1 -120 0 -60 1 -117 1 -125 1 -98 -2 -142 -1 -150 4 -6 3
-10 3 -10 -2 0 -9 -283 -8 -306 1 -7 3 -16 1 -19 -4 -3 -5 -18 -5 -33 -1 -15
3 -45 4 -67 1 -22 -3 -59 -2 -82 1 -24 3 -45 4 -48 1 -3 -3 -55 -4 -117 -3
-62 1 -120 2 -128 2 -98 -2 -142 -1 -150 4 -6 3 -10 3 -10 -2 0 -9 -283 -8
-306 1 -7 3 -16 1 -19 -4 -3 -4 -17 -5 -32 -1 -15 4 -46 4 -69 1 -22 -4 -49
-3 -60 0 -10 4 -30 4 -44 0 -58 -15 -55 -32 -54 371 1 404 0 410 -57 452 -26
19 -67 19 -1942 21 -1053 0 -1933 -2 -1956 -6z m6014 -1803 l0 -710 -230 -3
c-127 -1 -239 -3 -250 -3 -11 0 -45 0 -75 0 -30 0 -66 0 -80 1 -25 2 -58 2
-95 1 -11 -1 -41 -1 -68 -1 -26 0 -51 -1 -55 -1 -4 -1 -19 -1 -34 0 l-27 1 -1
713 0 714 457 -1 458 -1 0 -710z"/>
<path d="M1545 2405 c-5 -2 -44 -11 -85 -20 -85 -19 -216 -77 -287 -127 -117
-81 -252 -245 -309 -374 -14 -33 -30 -68 -35 -79 -16 -35 -49 -178 -56 -240
-14 -132 0 -305 33 -397 7 -21 11 -38 9 -38 -4 0 14 -47 51 -128 109 -240 341
-436 589 -496 84 -21 238 -28 320 -15 73 12 211 60 274 96 94 55 206 151 270
234 28 36 122 189 117 189 -3 0 6 24 19 54 46 103 68 220 69 361 1 171 -12
255 -60 380 -4 11 -8 22 -8 25 -4 18 -72 150 -78 150 -5 0 -8 5 -8 11 0 17
-83 120 -144 179 -159 154 -370 239 -586 238 -47 0 -89 -2 -95 -3z m248 -265
c32 -7 60 -17 63 -22 3 -4 11 -8 19 -8 26 0 134 -70 195 -126 106 -99 181
-236 213 -389 14 -68 15 -233 2 -300 -12 -63 -59 -191 -74 -205 -4 -3 -15 -23
-26 -45 -11 -22 -56 -76 -100 -120 -98 -99 -190 -150 -325 -182 -46 -11 -172
-9 -231 4 -432 89 -661 608 -456 1033 46 96 167 236 237 275 95 53 178 85 255
98 43 7 173 -1 228 -13z"/>
<path d="M4618 2405 c-2 -2 -21 -6 -43 -9 -103 -16 -270 -84 -338 -139 -172
-135 -261 -253 -342 -452 -5 -11 -9 -22 -10 -25 -39 -125 -53 -223 -49 -354 3
-137 6 -160 35 -265 48 -175 169 -367 302 -478 68 -57 223 -147 270 -157 7 -2
19 -6 27 -9 78 -30 304 -43 395 -23 232 51 433 191 566 396 159 244 203 563
117 855 -91 313 -345 566 -643 640 -59 15 -277 30 -287 20z m233 -265 c223
-53 403 -231 477 -472 117 -379 -79 -789 -432 -905 -102 -33 -247 -37 -341 -9
-68 20 -185 76 -185 88 0 4 -6 8 -12 8 -20 0 -142 129 -180 190 -40 64 -86
168 -93 212 -3 17 -8 35 -11 39 -13 21 -13 224 0 292 67 344 336 581 652 572
40 -2 96 -8 125 -15z"/>
<path d="M2745 1558 c-11 -7 -25 -17 -31 -23 -65 -64 -30 -195 56 -212 8 -2
196 -3 417 -4 296 0 408 3 425 12 77 41 90 148 25 209 l-32 30 -420 0 c-299
-1 -426 -4 -440 -12z"/>
</g>
</svg>
