<?xml version="1.0" standalone="no"?>
<!DOCTYPE svg PUBLIC "-//W3C//DTD SVG 20010904//EN"
 "http://www.w3.org/TR/2001/REC-SVG-20010904/DTD/svg10.dtd">
<svg version="1.0" xmlns="http://www.w3.org/2000/svg"
 width="672.000000pt" height="672.000000pt" viewBox="0 0 672.000000 672.000000"
 preserveAspectRatio="xMidYMid meet">
<metadata>
Created by potrace 1.14, written by Peter Selinger 2001-2017
</metadata>
<g transform="translate(0.000000,672.000000) scale(0.100000,-0.100000)"
fill="#000000" stroke="none">
<path d="M3077 6563 c-1 -1 -27 -2 -57 -4 -63 -3 -102 -25 -119 -66 -6 -16
-38 -140 -71 -278 -34 -137 -65 -263 -70 -280 -9 -29 -36 -140 -45 -180 -16
-77 -15 -75 -125 -115 -121 -43 -177 -67 -276 -117 l-71 -35 -364 219 c-369
222 -374 224 -444 214 -15 -2 -585 -573 -600 -601 -27 -52 -20 -89 37 -182
116 -190 374 -624 376 -635 2 -7 -20 -61 -48 -121 -28 -59 -56 -116 -60 -127
-18 -42 -70 -192 -70 -201 0 -8 -78 -32 -165 -50 -5 -1 -57 -14 -115 -29 -58
-15 -112 -28 -120 -30 -8 -2 -98 -24 -200 -50 -102 -27 -191 -48 -198 -48 -20
0 -82 -64 -83 -84 -6 -82 -3 -814 3 -836 10 -38 50 -74 96 -86 59 -16 325 -82
342 -86 8 -2 44 -11 80 -20 36 -9 70 -18 75 -19 6 -1 72 -17 147 -36 125 -31
137 -36 144 -59 9 -31 9 -30 18 -56 61 -161 87 -223 122 -291 l41 -81 -33 -54
c-19 -30 -37 -61 -41 -69 -5 -9 -63 -108 -131 -220 -68 -113 -128 -212 -132
-220 -5 -8 -29 -46 -52 -85 -35 -58 -43 -79 -43 -122 l0 -51 290 -292 c160
-160 298 -296 308 -301 54 -30 80 -23 225 64 56 34 115 69 130 78 15 9 80 48
145 88 65 39 122 71 127 71 4 0 10 3 12 8 2 4 43 31 92 60 l90 53 90 -44 c50
-25 127 -59 171 -77 44 -17 88 -36 97 -41 10 -5 27 -9 37 -9 11 0 23 -5 26
-10 4 -6 10 -8 15 -5 11 7 17 -4 24 -36 2 -13 23 -96 45 -184 23 -88 43 -169
45 -180 12 -60 107 -418 116 -435 26 -49 42 -51 480 -50 225 0 419 4 432 9 34
13 66 52 72 88 4 18 11 44 16 58 5 14 12 38 15 53 9 51 14 74 20 92 3 10 7 27
10 37 2 10 17 74 35 143 18 69 33 133 35 143 3 10 7 27 10 37 3 10 8 28 10 39
11 47 13 58 25 101 7 25 13 51 14 58 3 18 16 26 76 47 30 10 66 23 80 28 14 6
27 11 30 12 3 1 17 7 33 13 50 22 82 33 86 32 2 -1 7 2 10 7 3 4 36 22 72 40
62 30 109 35 109 12 0 -5 5 -9 10 -9 6 0 65 -34 131 -75 67 -41 123 -75 125
-75 2 0 28 -16 58 -35 30 -19 60 -35 66 -35 5 0 10 -4 10 -8 0 -5 15 -16 33
-25 36 -18 80 -44 179 -105 76 -47 114 -57 154 -42 31 12 575 555 605 604 10
17 19 42 19 56 0 15 -39 91 -90 175 -49 83 -93 156 -97 164 -3 8 -62 106 -129
218 l-123 204 42 87 c22 48 42 89 42 92 1 3 8 19 15 35 7 17 30 77 50 135 l38
105 63 18 c35 9 73 19 84 21 86 17 670 169 686 179 49 30 51 50 51 489 0 374
-2 411 -18 436 -27 41 -41 53 -71 58 -16 3 -41 9 -58 14 -16 5 -41 12 -55 14
-14 3 -79 20 -145 37 -66 17 -136 35 -155 39 -19 4 -100 25 -180 45 -80 20
-149 38 -155 39 -38 8 -54 20 -60 44 -14 58 -79 222 -126 318 l-49 102 115
192 c63 105 115 196 115 201 0 5 5 9 10 9 6 0 10 5 10 10 0 6 16 36 35 66 19
30 35 57 35 61 0 3 6 14 14 22 7 9 26 39 41 66 73 130 75 136 49 186 -19 37
-563 584 -599 603 -51 26 -92 12 -240 -81 -11 -7 -36 -22 -55 -33 -19 -11 -42
-25 -50 -30 -26 -17 -284 -173 -305 -184 -11 -6 -52 -30 -91 -54 l-71 -42
-114 54 c-63 30 -159 71 -214 91 -113 41 -130 49 -130 61 -1 5 -4 18 -8 29 -3
11 -8 31 -11 45 -2 14 -15 70 -29 125 -23 89 -35 140 -42 170 -2 6 -8 30 -15
55 -7 25 -14 52 -16 60 -69 282 -72 296 -85 323 -25 55 -47 58 -440 60 -199 1
-361 1 -362 0z m613 -237 c0 -2 7 -32 16 -65 8 -34 17 -71 19 -82 3 -12 9 -36
14 -53 6 -17 12 -42 15 -56 2 -14 16 -72 31 -130 15 -58 28 -112 30 -120 2 -8
8 -35 14 -60 7 -25 14 -55 16 -67 3 -12 10 -34 15 -48 5 -14 9 -29 8 -33 -5
-20 29 -96 49 -112 13 -10 63 -31 111 -46 111 -35 293 -112 401 -170 49 -27
98 -46 116 -46 37 0 18 -10 417 231 174 105 320 191 324 191 9 0 414 -406 414
-415 0 -4 -16 -34 -37 -68 -20 -34 -41 -71 -47 -82 -29 -52 -281 -471 -287
-475 -14 -12 -49 -99 -49 -122 0 -14 26 -77 58 -139 68 -132 160 -365 176
-446 8 -40 56 -75 125 -88 13 -2 31 -7 41 -10 10 -3 27 -8 37 -10 10 -2 81
-20 158 -40 77 -19 149 -37 160 -40 11 -2 65 -15 120 -30 55 -15 107 -28 115
-29 8 -1 34 -8 57 -14 l42 -12 0 -288 c0 -158 -3 -292 -7 -297 -4 -6 -12 -11
-18 -12 -6 -1 -76 -18 -155 -38 -79 -20 -152 -38 -162 -40 -10 -3 -27 -7 -37
-10 -10 -3 -28 -8 -39 -10 -12 -3 -29 -7 -38 -10 -44 -11 -189 -47 -203 -50
-8 -2 -16 -4 -17 -5 -3 -3 -7 -4 -58 -14 -82 -16 -121 -57 -140 -146 -4 -19
-12 -46 -18 -60 -5 -14 -11 -29 -12 -35 -14 -57 -106 -263 -156 -347 -35 -59
-34 -119 3 -176 46 -69 178 -294 178 -303 0 -5 5 -9 10 -9 6 0 10 -4 10 -9 0
-6 43 -80 95 -166 52 -86 95 -161 95 -166 0 -9 -403 -419 -413 -419 -10 0
-182 104 -185 112 -2 5 -8 8 -12 8 -5 0 -122 68 -261 152 -263 158 -286 167
-340 137 -37 -20 -226 -114 -279 -138 -25 -11 -95 -36 -157 -56 -62 -20 -123
-45 -137 -56 -22 -17 -39 -58 -51 -119 -2 -8 -8 -35 -15 -60 -7 -25 -13 -52
-15 -60 -2 -8 -13 -53 -25 -100 -21 -81 -25 -97 -34 -138 -2 -9 -9 -35 -14
-57 -6 -22 -13 -51 -16 -65 -2 -14 -12 -52 -21 -85 -18 -67 -18 -67 -29 -111
l-7 -31 -296 1 -296 1 -13 53 c-8 29 -16 62 -18 75 -3 12 -12 49 -21 82 -9 33
-19 71 -21 85 -3 14 -11 48 -19 75 -8 28 -16 61 -19 75 -3 14 -12 52 -21 85
-9 33 -18 69 -21 80 -15 77 -39 164 -52 186 -18 32 -55 55 -108 68 -54 13
-187 62 -268 100 -37 17 -69 31 -71 31 -1 0 -38 20 -81 44 -44 24 -92 45 -109
47 -33 2 -115 -28 -115 -42 0 -5 -4 -9 -10 -9 -5 0 -114 -63 -241 -140 -127
-77 -236 -140 -240 -140 -5 0 -9 -4 -9 -10 0 -5 -4 -10 -10 -10 -5 0 -34 -16
-64 -35 -30 -19 -59 -35 -63 -35 -5 0 -102 93 -216 208 l-207 207 104 173 c57
95 109 179 116 187 7 8 9 15 4 15 -5 0 -4 4 1 8 13 9 75 111 75 123 0 5 5 9
10 9 6 0 10 4 10 9 0 5 24 50 54 101 45 75 54 98 52 131 -2 22 -10 47 -18 57
-20 23 -105 201 -135 282 -13 36 -28 74 -33 85 -5 11 -18 52 -30 90 -11 39
-25 80 -31 92 -13 25 -73 53 -146 68 -18 3 -599 148 -663 165 l-35 9 2 287 c1
158 4 292 7 299 2 7 19 15 38 19 18 4 42 9 53 12 11 2 92 22 180 44 88 23 169
43 180 45 11 3 65 16 119 31 98 25 117 30 165 40 38 8 77 31 93 56 8 13 27 63
42 113 16 49 37 109 49 134 11 24 20 50 20 57 0 8 4 14 9 14 4 0 8 7 8 14 0 8
27 67 59 130 33 63 62 130 65 149 5 30 -9 58 -125 253 -72 120 -140 233 -150
251 -10 17 -30 50 -44 73 -14 23 -34 56 -44 73 -10 18 -28 48 -39 67 l-21 36
208 208 209 209 58 -34 c33 -19 67 -38 76 -44 10 -5 73 -44 140 -85 68 -41
131 -79 141 -85 10 -5 75 -45 145 -87 147 -89 172 -99 204 -89 12 4 84 37 158
74 74 37 205 92 290 121 167 57 185 70 201 142 4 22 20 86 34 144 15 58 28
113 30 123 2 9 6 21 10 26 3 5 7 22 9 38 6 37 72 303 92 371 l16 52 294 0
c162 0 294 -2 294 -4z"/>
<path d="M3280 4229 c-85 -13 -105 -17 -150 -34 -25 -9 -53 -18 -63 -20 -59
-13 -210 -113 -299 -200 -305 -299 -349 -773 -106 -1135 135 -201 374 -347
615 -379 214 -27 441 28 622 151 164 112 302 310 351 504 44 169 42 317 -6
483 -21 69 -84 211 -104 231 -3 3 -24 30 -47 62 -52 69 -115 130 -196 186 -50
35 -155 92 -177 97 -3 1 -34 11 -70 22 -36 11 -85 24 -110 28 -59 10 -203 12
-260 4z m205 -234 c234 -28 453 -210 530 -439 58 -173 36 -382 -57 -544 -61
-108 -197 -227 -313 -275 -175 -72 -376 -64 -548 24 -278 141 -419 462 -335
764 7 22 12 42 13 45 1 3 12 28 25 55 76 157 201 272 367 338 48 19 78 26 148
33 28 4 51 7 53 9 3 3 35 0 117 -10z"/>
</g>
</svg>
